<svg xmlns="http://www.w3.org/2000/svg" viewBox="0 0 32 32">
  <rect width="32" height="32" rx="6" fill="#000"/>
  <path d="M16 8c-2.2 0-4 1.8-4 4 0 1.3.6 2.5 1.5 3.3l-.5 2c-.2.7-.5 1.3-.8 1.8-.3.5-.6.9-.8 1.2l-.3.5c-.2.4-.2.8 0 1.2.4 1 1.4 1.8 2.9 1.8s2.5-.8 2.9-1.8c.2-.4.2-.8 0-1.2l-.3-.5c-.2-.3-.5-.7-.8-1.2-.3-.5-.6-1.1-.8-1.8l-.5-2c.9-.8 1.5-2 1.5-3.3 0-2.2-1.8-4-4-4zm0 6c1.1 0 2 .9 2 2s-.9 2-2 2-2-.9-2-2 .9-2 2-2z" fill="#fff"/>
  <circle cx="12" cy="15" r="1.5" fill="#fff"/>
  <circle cx="20" cy="15" r="1.5" fill="#fff"/>
</svg>